<?xml version="1.0" encoding="UTF-8"?>
<svg width="520px" height="377px" viewBox="0 0 520 377" version="1.1" xmlns="http://www.w3.org/2000/svg" xmlns:xlink="http://www.w3.org/1999/xlink">
    <!-- Generator: Sketch 60 (88103) - https://sketch.com -->
    <title>Group 2</title>
    <desc>Created with Sketch.</desc>
    <g id="Page-1" stroke="none" stroke-width="1" fill="none" fill-rule="evenodd">
        <g id="Group-2" fill="#EB8200">
            <g id="Group" fill-rule="nonzero">
                <g id="noun-euro-4912163" transform="translate(228.000000, 182.000000)">
                    <path d="M59.9455714,65.9991414 C54.2494457,68.9802411 47.7932793,70.1621506 41.4210045,69.3902819 C35.047362,68.6184133 29.0532079,65.9291941 24.2216835,61.6734321 C19.3892473,57.4182823 15.9436079,51.7940337 14.3341637,45.535056 L50.5322221,45.535056 C51.4826757,45.535056 52.3606663,45.0244717 52.8355968,44.1958034 C53.3105272,43.3671352 53.3105272,42.3459512 52.8355968,41.5172983 C52.3606663,40.6886453 51.4826453,40.1780457 50.5322221,40.1780457 L13.4314159,40.1780457 C13.4314159,39.2943839 13.2984354,38.4100793 13.2984354,37.4995406 C13.2984354,36.5890019 13.2984354,35.704636 13.4314159,34.8210354 L53.6705625,34.8210354 C54.6210161,34.8210354 55.4990067,34.3104511 55.9739371,33.4817829 C56.4488676,32.6531146 56.4488676,31.6319307 55.9739371,30.8032777 C55.4990067,29.9746248 54.6209857,29.4640252 53.6705625,29.4640252 L14.3356834,29.4640252 C15.9451277,23.2053535 19.3907671,17.581105 24.2232033,13.3256491 C29.0550317,9.06988703 35.0491857,6.38066787 41.4225243,5.60879922 C47.7955589,4.83693057 54.2515734,6.01894723 59.9470912,8.99993978 C60.5763702,9.38976177 61.3380371,9.49797337 62.0498552,9.29947318 C62.7616582,9.10097299 63.3594778,8.61369934 63.7001815,7.95363914 C64.040946,7.29357895 64.0937735,6.52051645 63.8456288,5.81986542 C63.5980723,5.11915317 63.0720925,4.55356003 62.3941198,4.25883263 C57.0992153,1.44456554 51.2000473,-0.0177452056 45.2130361,0 C36.7259911,0.00315187923 28.4954846,2.9255493 21.882933,8.28439626 C15.2712934,13.642631 10.6751825,21.1148951 8.85616093,29.4644843 L2.65957248,29.4644843 C1.70911888,29.4644843 0.831128273,29.9750686 0.356197831,30.8037369 C-0.11873261,31.6324052 -0.11873261,32.6535891 0.356197831,33.482242 C0.831128273,34.310895 1.70914928,34.8214946 2.65957248,34.8214946 L8.11177395,34.8214946 L8.11177395,37.5 L8.11177395,40.1785049 L2.65957248,40.1785049 C1.70911888,40.1785049 0.831128273,40.6890892 0.356197831,41.5177575 C-0.11873261,42.3464257 -0.11873261,43.3676096 0.356197831,44.1962626 C0.831128273,45.0249156 1.70914928,45.5355152 2.65957248,45.5355152 L8.85616093,45.5355152 C10.6751825,53.8843391 15.2712934,61.3570624 21.882933,66.7156032 C28.4951806,72.0744502 36.7262951,74.9967758 45.2130361,75 C51.2001992,75.0177738 57.0993672,73.5553574 62.3941198,70.7411669 C63.0720773,70.4464088 63.5980723,69.8808157 63.8456288,69.1801341 C64.093778,68.4794218 64.0409506,67.7063593 63.7001815,67.0463603 C63.359417,66.3863001 62.7615974,65.8990265 62.0498552,65.7005263 C61.3380523,65.5020261 60.5763854,65.6102469 59.9470912,66.0000597 L59.9455714,65.9991414 Z" id="Path"></path>
                </g>
                <g id="noun-car-75088">
                    <path d="M489.39,261.06 C489.39,269.5405 482.515,276.415 474.035,276.415 C465.5545,276.415 458.68,269.54 458.68,261.06 C458.68,252.5795 465.555,245.705 474.035,245.705 C482.5155,245.705 489.39,252.58 489.39,261.06" id="Path"></path>
                    <path d="M61.8,261.06 C61.8,269.5405 54.925,276.415 46.445,276.415 C37.965,276.415 31.09,269.54 31.09,261.06 C31.09,252.5795 37.965,245.705 46.445,245.705 C54.925,245.705 61.8,252.58 61.8,261.06" id="Path"></path>
                    <path d="M518.68703,205.297 C521.17533,162.664 512.59323,143.293 512.59323,143.293 C512.59323,143.293 504.01903,129.047 502.07723,127.102 C500.14363,125.1645 498.06943,117.6879 494.61243,114.79 C491.14763,111.8838 481.79243,106.0322 476.90143,104.548 C446.31943,95.2785 444.65543,89.189 444.65543,89.189 L436.62783,73.69255 C405.34683,16.12655 381.62383,7.68455 381.62383,7.68455 C380.51053,6.85643 379.54573,6.98924 376.15113,6.85643 C349.30313,-0.47557 277.07713,0.21583 260.06113,0.21583 C243.03013,0.21583 170.80313,-0.47167 143.95113,6.85643 C140.56443,6.98924 139.59563,6.85643 138.48633,7.68455 C138.48633,7.68455 114.75233,16.12205 83.48233,73.69255 L75.45903,89.189 C75.45903,89.189 73.80283,95.2749 43.22103,104.548 C38.32263,106.0324 28.96703,111.8839 25.51003,114.79 C22.04523,117.6962 19.96703,125.165 18.03343,127.102 C16.09593,129.0434 7.51743,143.293 7.51743,143.293 C7.51743,143.293 -1.06067,162.664 1.43153,205.297 C1.497936,206.3556 1.56434,207.465 1.64247,208.5861 C1.15028,221.8441 -1.81063,308.4811 4.51747,324.5661 C7.83387,335.5701 14.89247,336.1911 14.89247,336.1911 L74.05247,336.1911 C74.05247,336.1911 78.40797,333.6989 80.07197,328.9294 C81.70867,324.2263 81.68527,311.5584 81.68527,311.1994 C101.99727,313.0939 119.88827,314.5978 119.88827,314.5978 C119.88827,314.5978 131.92327,313.76968 133.86127,313.0783 C135.80267,312.40252 260.04127,313.21892 260.07127,313.21892 C260.082989,313.21892 384.34127,312.40251 386.27127,313.0783 C388.20487,313.7658 400.24427,314.5978 400.24427,314.5978 C400.24427,314.5978 418.13127,313.0861 438.44327,311.1994 C438.44327,311.53924 438.419833,324.2154 440.06047,328.9294 C441.71667,333.6989 446.07217,336.1911 446.07217,336.1911 L505.22417,336.1911 C505.22417,336.1911 512.27887,335.57001 515.60717,324.5661 C521.93137,308.4761 518.97437,221.8661 518.48607,208.5861 C518.558125,207.465 518.62062,206.3595 518.68703,205.297 Z M21.95,148.137 C21.95,148.137 24.0047,140.8128 30.6688,141.7034 C30.6688,141.7034 97.2978,150.4182 104.5668,153.9574 C107.5863,155.559 108.3012,157.3441 108.3012,157.3441 L116.602,186.5351 C116.602,186.5351 120.1293,196.289 111.6293,195.4609 C103.1098,194.63278 24.0353,184.8709 20.2933,180.7269 C19.0238,175.7347 21.9495,148.1369 21.9495,148.1369 L21.95,148.137 Z M128.74,282.227 C124.7752,286.1879 122.6541,287.1059 122.6541,287.1059 C122.6541,287.1059 118.8846,290.1137 106.8491,290.1137 C92.7081,290.1137 43.3291,284.2934 31.7081,279.9457 C23.8175,277.0355 24.6534,272.2699 24.6534,272.2699 L23.6104,244.0399 C23.6104,244.0399 22.3604,236.3641 30.0401,237.1922 C37.7237,238.02032 125.7281,247.5632 125.7281,247.5632 C125.7281,247.5632 130.9586,265.0202 131.7554,271.0202 C132.13431,273.8913 131.02493,279.9421 128.7398,282.2272 L128.74,282.227 Z M260.25,304.782 L144.69,302.7039 C144.69,302.7039 156.311,288.4499 171.116,288.4499 L260.241,288.4499 L349.354,288.4499 C364.159,288.4499 375.78,302.7039 375.78,302.7039 L260.25,304.782 Z M382.5,168.572 C378.3516,193.99 359.262,262.72 359.262,262.72 C359.262,262.72 356.7698,278.282 337.883,279.947 C298.442,282.2322 260.262,282.2322 260.262,282.2322 C260.262,282.2322 222.063,282.2322 182.625,279.947 C163.73,278.2829 161.25,262.72 161.25,262.72 C161.25,262.72 142.152,193.99 138,168.572 C134.6797,153.955 151.496,153.744 151.496,153.744 C151.496,153.744 230.367,150.6307 260.266,150.6307 C290.149,150.6307 369.026,153.744 369.026,153.744 C369.022094,153.744 385.815,153.95884 382.495,168.572 L382.5,168.572 Z M260.25,79.431 C260.25,79.431 129.47,81.7083 91.08,85.6576 C95.8573,65.9386 134.463,14.8806 134.463,14.8806 C134.463,14.8806 177.635,5.9548 260.253,6.99 C342.855,5.9548 386.033,14.8806 386.033,14.8806 C386.033,14.8806 424.638,65.9426 429.412,85.6576 C391.006,81.7162 260.252,79.431 260.252,79.431 L260.25,79.431 Z M496.86,244.041 L495.8248,272.271 C495.8248,272.271 496.65292,277.0405 488.774,279.9468 C477.141,284.2984 427.766,290.1148 413.622,290.1148 C401.595,290.1148 397.817,287.107 397.817,287.107 C397.817,287.107 395.6998,286.18903 391.7311,282.2281 C389.442,279.9429 388.3444,273.8961 388.7194,271.0171 C389.52409,265.0132 394.7389,247.5601 394.7389,247.5601 C394.7389,247.5601 482.7469,238.0249 490.4269,237.1891 C498.1027,236.36098 496.8605,244.0407 496.8605,244.0407 L496.86,244.041 Z M500.1881,180.736 C496.4537,184.8844 417.3761,194.642 408.8561,195.47 C400.3444,196.29812 403.8795,186.5442 403.8795,186.5442 L412.1725,157.3532 C412.1725,157.3532 412.89516,155.568 415.9147,153.9665 C423.1764,150.4274 489.8017,141.7125 489.8017,141.7125 C496.4619,140.82187 498.5205,148.1461 498.5205,148.1461 C498.5205,148.142194 501.4541,175.7401 500.1885,180.7361 L500.1881,180.736 Z" id="Shape"></path>
                </g>
            </g>
            <text id="Reisekosten" font-family="Phosphate-Inline, Phosphate" font-size="60" font-weight="normal">
                <tspan x="94" y="375">Reisekosten</tspan>
            </text>
        </g>
    </g>
</svg>