<?xml version="1.0" standalone="no"?>
<!DOCTYPE svg PUBLIC "-//W3C//DTD SVG 20010904//EN"
 "http://www.w3.org/TR/2001/REC-SVG-20010904/DTD/svg10.dtd">
<svg version="1.0" xmlns="http://www.w3.org/2000/svg"
 width="1560.000000pt" height="1560.000000pt" viewBox="0 0 1560.000000 1560.000000"
 preserveAspectRatio="xMidYMid meet">
<metadata>
Created by potrace 1.14, written by Peter Selinger 2001-2017
</metadata>
<g transform="translate(0.000000,1560.000000) scale(0.100000,-0.100000)"
fill="#000000" stroke="none">
<path d="M7067 13354 c-1 -1 -191 -5 -422 -8 -420 -7 -527 -10 -770 -21 -71
-4 -168 -8 -214 -10 -203 -9 -657 -45 -761 -60 -14 -2 -47 -7 -75 -10 -101
-11 -140 -16 -155 -20 -17 -5 -53 -11 -120 -20 -25 -4 -83 -16 -130 -27 -47
-11 -116 -22 -155 -25 -79 -5 -127 -24 -235 -91 -269 -167 -609 -512 -907
-924 -159 -218 -395 -585 -501 -778 -13 -25 -32 -58 -42 -75 -40 -69 -117
-215 -271 -514 -29 -57 -67 -117 -83 -133 -107 -107 -359 -226 -776 -365 -276
-93 -364 -135 -570 -273 -141 -95 -171 -131 -263 -318 -31 -62 -70 -130 -87
-150 -40 -48 -36 -42 -106 -152 -124 -192 -196 -314 -215 -361 -19 -49 -75
-255 -84 -313 -3 -17 -12 -62 -20 -101 -7 -38 -17 -94 -20 -124 -4 -30 -8 -62
-10 -73 -2 -10 -7 -51 -10 -91 -3 -39 -8 -79 -10 -87 -18 -70 -21 -366 -14
-1165 1 -104 -1 -266 -4 -360 -25 -664 -26 -1768 -2 -2295 13 -285 43 -572 71
-685 59 -232 152 -375 280 -432 36 -16 109 -17 934 -19 1003 -1 909 -9 992 78
101 105 133 244 137 601 1 43 4 76 9 74 4 -3 43 -8 87 -12 44 -3 94 -8 110
-10 17 -2 66 -7 110 -10 44 -3 96 -8 115 -10 19 -2 67 -7 105 -10 39 -3 90 -8
115 -10 25 -2 81 -7 125 -11 44 -4 94 -8 110 -10 254 -25 385 -22 615 13 92
14 237 16 1175 15 1705 -2 4224 -2 5313 1 1035 2 1125 0 1302 -29 45 -7 204
-18 265 -18 57 1 243 13 276 19 8 2 53 6 100 10 46 4 98 8 114 10 17 1 68 6
115 10 47 4 99 9 115 11 17 1 66 5 110 9 44 3 96 8 115 10 19 2 69 7 110 10
41 4 78 9 82 11 5 3 8 -5 9 -18 0 -13 2 -60 4 -106 6 -148 15 -253 30 -342 15
-95 90 -211 170 -266 30 -21 36 -21 930 -19 806 1 904 3 936 18 50 22 131 98
169 157 53 83 104 233 125 370 3 19 8 46 10 60 3 14 7 51 10 82 3 32 8 77 10
100 3 24 7 86 11 138 3 52 7 115 9 140 27 402 26 1689 -2 2495 -8 232 -8 265
2 480 13 266 8 660 -10 840 -13 135 -16 165 -21 205 -2 25 -7 60 -10 78 -3 17
-7 49 -10 70 -14 118 -70 364 -110 479 -26 78 -185 344 -296 495 -37 51 -97
151 -133 223 -36 71 -77 144 -92 163 -49 65 -294 228 -458 306 -33 16 -153 60
-268 97 -308 103 -491 179 -640 266 -136 80 -161 110 -286 356 -274 536 -519
936 -806 1318 -407 542 -850 927 -1085 942 -36 3 -119 16 -185 30 -104 22
-203 40 -295 52 -14 2 -43 6 -65 9 -70 9 -132 16 -192 21 -32 3 -78 7 -103 10
-70 8 -237 21 -388 30 -302 19 -629 32 -1077 41 -255 5 -1963 12 -1968 8z
m1678 -208 c215 -4 431 -9 480 -11 50 -2 158 -6 240 -10 83 -3 175 -8 205 -10
30 -2 109 -6 175 -10 66 -3 138 -8 160 -10 22 -3 83 -7 135 -10 52 -3 111 -8
130 -10 19 -2 73 -6 120 -10 47 -3 96 -8 110 -10 14 -2 59 -7 100 -10 41 -3
84 -7 95 -9 11 -2 56 -7 100 -10 44 -4 89 -9 100 -11 11 -2 40 -7 65 -9 40 -5
185 -23 247 -31 13 -2 42 -6 65 -10 24 -4 54 -8 68 -10 65 -10 158 -26 185
-31 17 -4 36 -7 43 -7 7 0 54 -57 104 -126 50 -69 111 -153 136 -186 151 -206
468 -673 619 -915 141 -227 227 -377 303 -531 34 -68 66 -132 71 -142 13 -24
64 -164 73 -200 l7 -29 -43 6 c-24 3 -79 8 -123 11 -44 4 -98 8 -120 10 -23 2
-90 6 -150 10 -61 3 -135 7 -165 10 -30 2 -109 7 -175 10 -66 3 -158 8 -205
11 -47 2 -139 7 -205 9 -66 3 -174 7 -240 10 -386 17 -847 33 -1440 50 -121 3
-276 8 -345 10 -69 2 -255 7 -414 11 -159 3 -341 7 -405 9 -789 23 -1184 23
-2081 0 -85 -2 -272 -7 -415 -10 -143 -3 -321 -7 -395 -10 -74 -2 -241 -7
-370 -10 -129 -4 -273 -8 -320 -10 -47 -2 -184 -6 -305 -10 -121 -3 -265 -8
-320 -10 -55 -2 -165 -7 -245 -10 -80 -3 -190 -8 -245 -10 -55 -2 -161 -7
-235 -10 -74 -3 -173 -8 -220 -10 -47 -3 -137 -7 -200 -10 -63 -4 -140 -8
-170 -10 -30 -2 -104 -6 -165 -10 -60 -4 -130 -9 -155 -11 -25 -2 -76 -6 -115
-9 -38 -3 -91 -8 -117 -10 l-47 -5 9 28 c4 15 20 59 34 97 15 39 28 75 30 80
13 47 222 440 290 545 13 19 61 96 107 170 169 273 529 797 755 1097 l80 108
159 27 c88 14 185 29 215 32 30 3 66 8 79 11 14 2 45 7 70 10 25 3 62 7 81 9
19 3 60 7 90 11 30 3 66 8 80 10 14 2 54 7 90 10 36 3 79 7 95 9 17 2 69 7
117 10 47 4 94 8 105 10 10 2 63 7 118 10 55 4 123 9 150 11 69 7 121 11 455
30 25 2 124 6 220 10 96 4 207 9 245 11 39 2 284 7 545 10 261 4 476 7 477 8
4 3 980 -3 1318 -8z m-7725 -4050 c14 -3 48 -7 75 -11 45 -5 104 -13 215 -29
76 -11 107 -15 155 -21 28 -3 73 -10 100 -15 28 -5 73 -12 100 -15 66 -8 115
-15 145 -20 14 -3 43 -7 65 -10 56 -8 117 -17 140 -21 11 -2 39 -6 62 -9 46
-5 104 -14 137 -21 26 -5 128 -22 181 -29 22 -3 63 -10 90 -15 28 -5 64 -11
80 -13 44 -7 98 -17 210 -38 55 -11 114 -22 130 -25 54 -9 189 -45 223 -60 37
-15 89 -56 111 -86 7 -11 19 -43 26 -71 12 -51 68 -248 106 -377 113 -383 147
-517 144 -576 -6 -117 -63 -153 -214 -133 -30 4 -83 11 -118 14 -34 3 -71 8
-82 10 -11 2 -48 6 -83 10 -35 3 -74 7 -88 10 -14 2 -47 7 -75 10 -27 3 -61 8
-75 10 -29 4 -93 12 -165 20 -27 3 -61 8 -75 10 -14 2 -45 7 -70 10 -25 2 -61
7 -80 10 -19 2 -55 7 -80 10 -52 7 -95 14 -130 20 -14 2 -50 7 -80 10 -30 3
-62 8 -70 10 -8 2 -37 7 -65 10 -27 3 -61 7 -75 10 -14 2 -41 6 -60 9 -185 26
-350 52 -705 112 -16 2 -61 11 -100 19 -38 8 -81 16 -95 19 -132 25 -279 66
-310 86 -23 14 -20 362 5 625 2 22 6 72 10 110 17 211 23 250 39 289 23 53 65
100 114 129 44 26 52 28 127 23 44 -3 91 -8 105 -10z m13771 4 c49 -14 110
-68 137 -123 26 -53 27 -57 36 -152 4 -38 9 -86 11 -105 2 -19 7 -73 11 -120
3 -47 8 -101 10 -120 8 -97 18 -305 17 -385 -1 -151 -1 -153 -26 -170 -21 -14
-256 -76 -337 -90 -19 -3 -80 -14 -135 -25 -55 -10 -118 -21 -140 -24 -22 -4
-92 -15 -155 -26 -63 -10 -135 -22 -160 -25 -25 -3 -70 -10 -100 -15 -30 -5
-73 -12 -95 -14 -22 -3 -132 -19 -245 -36 -113 -16 -225 -32 -250 -35 -51 -6
-113 -14 -150 -20 -14 -2 -63 -9 -110 -15 -47 -6 -98 -13 -115 -16 -16 -3 -48
-7 -70 -9 -22 -2 -58 -6 -80 -9 -50 -7 -105 -14 -173 -22 -29 -3 -62 -7 -73
-9 -11 -2 -50 -7 -87 -11 -36 -3 -75 -8 -85 -10 -48 -9 -147 -17 -196 -16 -89
2 -131 44 -133 133 -1 67 0 74 63 289 27 96 52 182 54 190 2 8 37 134 79 279
82 289 86 296 175 345 40 22 118 45 206 62 11 2 52 10 90 18 84 18 296 56 345
62 19 3 42 6 50 9 8 2 38 7 65 11 28 3 59 8 70 10 21 4 243 39 310 49 23 3 50
7 60 9 11 2 43 7 70 10 28 4 75 11 105 16 30 5 73 11 95 14 22 3 103 15 180
26 77 11 163 22 190 25 28 3 57 8 65 10 8 2 40 7 70 11 30 3 66 8 80 10 14 2
52 6 85 10 33 3 62 8 64 10 8 8 86 4 122 -6z m-6526 -265 c220 -4 447 -8 505
-10 58 -2 213 -6 345 -10 132 -4 290 -8 350 -10 61 -2 196 -7 300 -10 105 -3
231 -7 280 -10 50 -2 185 -7 300 -10 116 -3 237 -8 270 -10 33 -2 152 -7 265
-10 210 -6 291 -15 370 -41 137 -46 225 -147 235 -271 3 -32 -1 -94 -10 -138
-8 -44 -17 -93 -19 -110 -28 -163 -125 -591 -222 -980 -42 -165 -77 -309 -80
-320 -2 -11 -33 -132 -69 -270 -36 -137 -67 -257 -69 -265 -6 -23 -53 -197
-102 -380 -25 -91 -47 -172 -48 -180 -25 -108 -113 -407 -131 -447 -59 -129
-169 -245 -290 -306 -113 -57 -234 -83 -420 -92 -55 -3 -152 -7 -215 -10 -63
-3 -158 -7 -210 -10 -87 -4 -279 -11 -520 -20 -309 -11 -839 -19 -1275 -19
-711 0 -1301 15 -2015 50 -69 3 -159 7 -200 9 -79 4 -181 14 -215 22 -11 2
-30 6 -43 9 -30 6 -140 48 -172 65 -107 58 -211 166 -265 274 -32 65 -60 155
-177 590 -41 152 -117 438 -123 465 -2 8 -29 112 -60 230 -65 251 -140 544
-148 580 -3 14 -11 45 -17 70 -6 25 -13 52 -15 60 -2 8 -8 35 -15 60 -7 25
-14 53 -16 63 -2 10 -5 26 -8 35 -3 9 -7 28 -10 42 -2 14 -9 43 -14 65 -14 50
-100 437 -108 479 -3 17 -11 63 -19 101 -45 227 -47 287 -11 369 41 92 113
150 232 185 82 24 125 29 349 36 202 7 335 12 545 20 85 3 209 7 275 10 66 2
206 7 310 10 105 3 235 8 290 10 55 2 215 7 355 10 140 4 300 9 355 10 55 2
298 7 540 10 242 4 442 9 444 11 2 2 7 2 10 0 3 -2 186 -7 406 -11z m-7275
-2600 c48 -5 98 -11 260 -29 19 -3 67 -7 105 -11 39 -3 79 -8 90 -10 11 -2 56
-7 100 -11 44 -3 88 -8 97 -9 9 -2 48 -7 85 -10 37 -4 79 -8 93 -10 14 -2 52
-6 85 -10 114 -11 150 -15 190 -20 42 -5 92 -10 190 -20 33 -3 74 -7 90 -10
17 -2 55 -7 85 -10 80 -8 151 -16 180 -20 14 -2 57 -7 95 -10 39 -4 81 -9 95
-10 14 -1 52 -6 85 -9 33 -4 85 -9 115 -11 30 -3 71 -8 90 -10 51 -7 107 -13
175 -20 33 -3 71 -8 85 -10 14 -2 54 -7 90 -10 36 -4 79 -8 95 -10 36 -5 175
-18 192 -18 17 0 75 -195 154 -512 46 -190 52 -269 24 -376 -23 -87 -46 -128
-102 -182 -125 -119 -232 -174 -377 -192 -17 -2 -51 -7 -76 -10 -50 -7 -320
-7 -390 -1 -25 3 -85 7 -134 11 -49 3 -103 8 -120 10 -17 2 -65 7 -106 10 -41
4 -88 8 -105 10 -16 2 -57 7 -90 10 -65 6 -81 8 -225 25 -99 11 -145 17 -195
25 -16 2 -52 7 -80 10 -27 3 -59 8 -70 10 -11 2 -40 7 -65 10 -25 3 -54 7 -65
9 -11 2 -42 7 -70 10 -71 10 -398 66 -405 71 -3 2 -24 6 -47 10 -84 12 -240
56 -305 87 -70 32 -140 95 -158 143 -5 13 -12 104 -15 202 -3 98 -8 219 -10
268 -10 209 -18 453 -17 493 2 78 42 132 111 152 25 8 51 7 171 -5z m13822 -1
c35 -7 75 -54 88 -103 5 -21 8 -83 5 -137 -3 -55 -7 -162 -10 -239 -21 -600
-22 -606 -34 -637 -17 -44 -84 -104 -153 -136 -34 -17 -128 -46 -208 -66 -129
-31 -173 -40 -245 -51 -11 -2 -58 -10 -105 -19 -47 -9 -104 -18 -128 -21 -24
-3 -53 -7 -65 -10 -26 -5 -80 -13 -145 -20 -26 -3 -54 -8 -62 -10 -13 -4 -60
-10 -150 -20 -14 -1 -43 -5 -65 -8 -42 -6 -133 -18 -175 -22 -61 -6 -147 -16
-175 -19 -16 -2 -64 -7 -105 -11 -41 -4 -82 -9 -91 -10 -9 -2 -56 -6 -105 -10
-49 -4 -105 -8 -124 -10 -214 -21 -534 -21 -610 0 -8 2 -29 7 -45 9 -101 17
-202 72 -308 167 -88 79 -125 165 -132 309 -2 47 2 112 9 145 20 90 91 366
126 485 17 58 32 110 34 117 1 7 5 16 9 20 8 8 7 8 97 17 125 13 146 15 235
25 121 14 179 20 250 26 33 3 71 8 85 10 14 2 52 6 85 9 33 4 76 8 95 11 34 5
67 8 180 20 81 8 198 21 280 30 25 3 65 7 90 9 55 5 146 15 180 21 14 2 59 6
100 10 41 3 86 8 100 10 14 3 50 7 80 10 78 7 249 25 290 30 19 2 60 7 90 10
30 3 71 7 90 10 33 4 61 7 190 20 30 3 71 8 90 10 250 32 295 34 362 19z
m-4202 -1538 c140 -25 338 -123 480 -240 62 -51 181 -169 176 -174 -3 -2 -92
-6 -198 -7 -434 -8 -887 -16 -1113 -20 -132 -3 -382 -7 -555 -10 -173 -3 -405
-7 -515 -10 -1066 -21 -959 -21 -2140 0 -88 2 -326 6 -530 9 -203 4 -458 9
-565 11 -107 2 -368 7 -580 10 -580 9 -711 13 -718 19 -14 14 194 197 304 268
108 70 239 122 359 142 53 9 726 11 2815 10 1510 -1 2761 -5 2780 -8z"/>
<path d="M8089 7895 c-2 -2 -24 -6 -49 -9 -223 -28 -449 -139 -615 -301 -137
-134 -249 -317 -297 -490 l-23 -80 -109 -1 c-106 0 -109 -1 -132 -28 -26 -29
-30 -56 -14 -87 18 -33 60 -45 148 -45 59 1 82 -2 83 -11 0 -7 1 -43 2 -80 l1
-68 -99 0 c-95 -1 -99 -2 -122 -30 -29 -33 -26 -77 8 -110 17 -17 33 -20 126
-21 l105 0 33 -100 c40 -122 86 -215 156 -313 62 -89 176 -204 262 -265 127
-90 329 -172 477 -193 98 -15 303 -9 401 12 127 26 306 105 320 142 15 39 11
62 -16 88 -37 38 -56 34 -210 -36 -27 -12 -128 -37 -185 -46 -102 -16 -329 -5
-372 18 -10 5 -18 8 -18 5 0 -10 -132 44 -206 83 -212 115 -364 294 -450 530
-13 36 -21 67 -18 70 2 3 251 5 552 6 497 0 550 2 574 17 14 9 28 28 30 42 7
34 -16 83 -44 92 -12 4 -275 8 -583 9 l-560 0 0 80 0 80 618 0 619 0 24 28
c32 37 30 72 -3 106 l-28 27 -593 0 c-327 -1 -598 1 -602 4 -22 14 84 246 153
334 109 142 247 248 407 313 66 27 101 37 200 59 14 3 73 7 132 8 156 5 282
-21 432 -88 73 -32 100 -33 131 -1 81 80 -36 166 -310 231 -61 14 -326 30
-336 19z"/>
<path d="M1301 5979 c-122 -24 -259 -127 -315 -237 -156 -307 63 -672 403
-672 309 0 526 284 446 583 -60 227 -298 372 -534 326z"/>
<path d="M14115 5976 c-189 -47 -333 -212 -351 -401 -18 -194 83 -373 262
-462 71 -35 84 -38 173 -40 146 -4 252 36 347 131 184 184 178 484 -14 663
-108 100 -276 144 -417 109z"/>
<path d="M8660 3243 c-54 -7 -117 -25 -170 -50 -52 -24 -137 -84 -152 -108 -3
-5 -17 -23 -31 -38 -37 -44 -74 -119 -91 -185 -57 -219 51 -459 254 -566 252
-133 559 -31 682 225 41 85 50 120 53 203 6 188 -108 380 -276 463 -82 41
-194 64 -269 56z m185 -167 c103 -47 170 -119 204 -219 30 -87 22 -210 -20
-289 -40 -76 -128 -150 -213 -178 -86 -28 -201 -18 -286 24 -58 30 -146 129
-170 193 -25 68 -28 175 -7 244 62 200 304 311 492 225z"/>
<path d="M8615 3058 c-53 -14 -137 -70 -170 -114 -61 -80 -86 -192 -63 -285
15 -61 73 -145 127 -185 127 -94 319 -78 428 35 69 72 88 121 88 231 0 83 -3
101 -27 145 -58 110 -159 176 -277 181 -36 2 -84 -2 -106 -8z m162 -133 c136
-57 168 -230 60 -332 -125 -118 -330 -30 -331 142 -1 147 139 245 271 190z"/>
<path d="M9511 3238 c-74 -10 -149 -44 -187 -85 -50 -53 -68 -102 -68 -183 -1
-102 32 -167 122 -247 143 -127 152 -137 146 -160 -3 -12 -16 -25 -28 -29 -31
-10 -113 -5 -178 10 -42 10 -58 10 -59 2 -1 -6 -2 -70 -3 -143 l-1 -132 45
-10 c138 -32 271 -32 365 -1 124 41 198 146 197 279 -1 122 -49 201 -195 325
-31 27 -57 57 -57 67 0 24 50 37 107 29 35 -6 43 -4 44 9 5 74 0 244 -7 251
-5 5 -43 12 -84 15 -41 4 -79 7 -85 9 -5 1 -39 -2 -74 -6z m137 -137 c2 0 -1
-8 -6 -17 -6 -11 -27 -16 -79 -17 -75 -3 -95 -12 -118 -57 -31 -61 -7 -108
120 -232 122 -119 159 -180 151 -247 -12 -99 -81 -153 -200 -157 -96 -3 -133
4 -139 26 -4 17 2 18 88 13 83 -5 98 -3 139 17 53 25 76 61 76 117 0 54 -28
94 -150 215 -82 81 -111 116 -121 150 -17 51 -17 62 -1 108 12 36 49 65 100
80 21 6 126 7 140 1z"/>
<path d="M3500 2740 l0 -480 154 0 154 0 -1 180 -2 180 25 1 c14 1 71 1 128 1
l102 0 1 37 c0 20 1 73 2 118 l2 83 -45 1 c-25 0 -82 0 -127 0 -93 -2 -83 -11
-86 77 l-1 27 130 5 130 5 0 123 0 122 -283 0 -283 0 0 -480z m470 348 c0 -16
-13 -18 -144 -18 l-144 0 0 -155 -1 -155 134 0 c124 0 161 -7 141 -28 -4 -3
-64 -7 -134 -8 -70 -1 -130 -2 -134 -3 -4 0 -6 -78 -6 -173 1 -152 -1 -172
-16 -174 -9 -1 -17 3 -17 9 -3 24 -5 712 -3 718 2 3 75 5 163 5 147 -1 161 -3
161 -18z"/>
<path d="M4366 3062 c-33 -86 -78 -206 -101 -267 -24 -60 -60 -155 -80 -210
-21 -55 -43 -113 -50 -130 -7 -16 -17 -43 -23 -60 -5 -16 -19 -54 -31 -82
l-21 -53 153 0 153 0 14 43 15 42 146 1 146 1 14 -41 14 -41 152 -3 153 -3
-29 78 c-16 43 -44 119 -63 168 -20 50 -66 171 -103 270 -37 99 -78 207 -91
240 -12 33 -35 93 -50 133 l-28 72 -115 0 -116 0 -59 -158z m202 32 c5 -5 24
-49 42 -99 18 -49 39 -103 46 -120 7 -16 40 -104 74 -195 34 -91 74 -196 90
-235 15 -38 27 -71 26 -72 -1 -1 -12 0 -24 3 -13 4 -25 19 -32 39 l-11 32
-239 0 -240 1 -11 -38 c-8 -26 -17 -37 -28 -35 -9 1 -15 9 -15 16 1 16 249
671 265 700 10 19 42 21 57 3z"/>
<path d="M4531 3044 c-7 -16 -32 -81 -56 -144 -24 -63 -65 -173 -93 -245 -27
-71 -53 -140 -56 -151 -7 -21 -6 -22 209 -22 118 0 217 4 220 8 4 7 -96 283
-153 420 -14 34 -50 132 -54 149 -2 8 -9 1 -17 -15z m44 -405 c15 -38 24 -73
21 -76 -6 -6 -107 -5 -113 1 -5 5 50 146 57 146 4 0 19 -32 35 -71z"/>
<path d="M5040 2740 l0 -480 155 0 154 0 0 168 c-1 92 0 172 0 178 1 6 32 10
84 9 l82 -1 2 -154 c1 -85 2 -165 2 -177 1 -23 2 -23 154 -23 l153 0 0 480 0
480 -153 0 -153 0 -1 -27 c0 -16 0 -89 0 -164 l-1 -136 -84 1 -84 0 -1 71 c-1
38 -1 112 0 163 l1 92 -155 0 -155 0 0 -480z m176 357 c3 -8 6 -83 7 -168 l2
-154 210 0 211 -1 -1 165 c0 149 2 164 18 167 9 1 17 -3 18 -9 1 -16 1 -666 0
-699 -1 -20 -5 -25 -19 -21 -16 4 -17 20 -17 184 l1 179 -214 0 -213 0 1 -22
c1 -13 2 -96 1 -186 -1 -124 -4 -161 -13 -160 -7 2 -15 6 -18 10 -4 5 -5 717
-1 726 4 8 22 0 27 -11z"/>
<path d="M5930 2740 l0 -480 154 0 155 0 -2 100 c-1 55 0 107 3 115 4 10 30
-26 73 -100 l68 -115 180 0 180 0 -30 53 c-16 28 -57 99 -89 157 l-60 105 34
33 c18 19 46 59 61 90 25 51 28 67 27 157 0 89 -3 106 -28 153 -33 65 -100
132 -158 160 -90 42 -149 50 -364 52 l-204 1 0 -481z m397 356 c42 -9 118 -47
146 -74 48 -45 70 -99 70 -172 0 -103 -37 -165 -125 -211 -44 -23 -45 -18 34
-147 55 -92 68 -122 50 -122 -19 0 -43 31 -102 133 -34 59 -66 104 -72 101 -5
-3 -55 -7 -111 -9 l-102 -3 -3 -111 c-3 -108 -5 -119 -27 -103 -14 9 -15 714
-2 723 9 7 208 3 244 -5z"/>
<path d="M6110 2849 l0 -221 113 4 c86 3 123 9 158 25 90 41 130 106 125 206
-8 139 -105 206 -298 207 l-98 0 0 -221z m215 97 c18 -8 38 -24 44 -35 17 -32
16 -87 -2 -114 -18 -27 -74 -50 -108 -45 -20 3 -22 9 -21 93 0 50 0 96 1 103
1 16 44 15 86 -2z"/>
<path d="M6720 3095 l0 -125 89 0 88 0 0 -352 0 -353 158 0 159 0 0 353 0 352
88 0 88 0 0 125 0 125 -335 0 -335 0 0 -125z m560 -7 c0 -16 -12 -18 -103 -18
l-103 0 1 -341 c0 -187 -3 -346 -8 -352 -5 -9 -11 -7 -20 4 -9 12 -12 100 -11
352 l1 337 -104 0 c-79 0 -103 3 -103 13 0 8 2 16 4 18 3 3 104 4 225 4 204 0
221 -1 221 -17z"/>
<path d="M7440 2740 l0 -480 155 0 154 0 3 146 3 145 100 -145 100 -146 183 0
c100 0 182 2 182 5 0 3 -41 64 -91 137 -50 73 -112 165 -138 203 -25 39 -48
72 -51 75 -3 3 -19 26 -37 51 -38 55 -56 20 149 286 81 105 148 194 148 197 0
3 -83 6 -184 6 l-184 0 -91 -111 -91 -112 0 112 0 111 -155 0 -155 0 0 -480z
m181 298 c0 -40 0 -148 0 -240 l0 -167 32 37 c18 20 51 60 73 87 21 28 41 52
44 55 3 3 52 64 110 135 57 72 111 137 119 145 14 14 51 25 51 15 0 -3 -53
-72 -118 -153 -65 -81 -121 -152 -125 -159 -4 -7 41 -82 110 -183 65 -93 128
-186 140 -205 l23 -34 -22 4 c-29 6 -30 7 -159 195 -62 91 -116 169 -120 174
-9 11 -20 0 -84 -84 -28 -36 -56 -71 -62 -78 -8 -8 -12 -45 -12 -104 0 -87
-12 -129 -29 -101 -6 9 -9 694 -3 726 0 4 8 7 16 7 12 0 15 -15 16 -72z"/>
<path d="M9880 3095 l0 -125 89 0 88 0 1 -332 c0 -183 1 -343 1 -355 1 -23 2
-23 156 -23 85 0 155 3 156 8 1 4 2 162 3 352 l1 345 88 3 87 3 0 124 0 125
-335 0 -335 0 0 -125z m558 -8 c3 -15 -7 -17 -100 -17 l-104 0 0 -348 c1 -325
0 -348 -16 -348 -21 0 -19 -35 -21 371 l-2 320 -102 3 c-76 2 -103 6 -103 16
0 7 2 15 4 17 3 3 103 4 223 4 199 0 218 -2 221 -18z"/>
<path d="M10600 2740 l0 -480 288 2 287 3 0 123 1 122 -136 0 -136 0 3 52 c2
28 5 54 8 56 2 3 58 4 125 4 104 0 120 2 121 17 3 53 0 213 -4 218 -3 3 -60 6
-126 7 -67 0 -121 4 -121 9 0 4 0 27 0 52 l0 45 128 0 129 0 -1 125 0 125
-283 0 -283 0 0 -480z m470 348 c0 -16 -13 -18 -144 -18 l-144 0 -1 -155 -1
-155 135 0 c124 0 161 -7 141 -28 -4 -3 -66 -6 -139 -7 l-132 0 -2 -158 -3
-157 146 0 c132 0 145 -2 142 -17 -3 -16 -20 -18 -161 -18 -100 0 -157 3 -158
10 -3 19 -5 710 -3 715 1 3 75 5 163 5 147 0 161 -1 161 -17z"/>
<path d="M11260 2740 l0 -480 150 0 150 0 1 63 c0 34 0 115 0 180 -1 64 1 117
2 117 2 0 19 -21 37 -47 19 -27 39 -53 45 -60 5 -6 48 -66 95 -132 l84 -121
127 0 127 0 0 480 0 480 -149 0 c-112 0 -149 -3 -150 -12 0 -7 -1 -88 -1 -180
0 -93 -3 -166 -7 -164 -3 3 -63 83 -131 180 l-125 175 -127 1 -128 0 0 -480z
m172 358 c8 -7 89 -116 179 -243 182 -257 290 -405 294 -405 2 0 4 123 3 273
0 397 0 384 17 384 8 0 16 -3 16 -6 4 -20 3 -714 -1 -719 -16 -21 -39 1 -127
126 -54 75 -101 142 -106 147 -4 6 -36 49 -70 97 -34 48 -93 132 -132 185
l-70 98 -3 -333 c-1 -182 -6 -332 -11 -332 -25 0 -28 43 -26 375 1 193 3 353
4 358 2 11 15 9 33 -5z"/>
</g>
</svg>
