<?xml version="1.0" standalone="no"?>
<!DOCTYPE svg PUBLIC "-//W3C//DTD SVG 20010904//EN"
 "http://www.w3.org/TR/2001/REC-SVG-20010904/DTD/svg10.dtd">
<svg version="1.0" xmlns="http://www.w3.org/2000/svg"
 width="1560.000000pt" height="1560.000000pt" viewBox="0 0 1560.000000 1560.000000"
 preserveAspectRatio="xMidYMid meet">
<metadata>
Created by potrace 1.14, written by Peter Selinger 2001-2017
</metadata>
<g transform="translate(0.000000,1560.000000) scale(0.100000,-0.100000)"
fill="#000000" stroke="none">
<path d="M6957 13444 c-1 -1 -168 -5 -372 -9 -203 -3 -415 -8 -470 -10 -187
-7 -398 -17 -454 -20 -31 -2 -108 -6 -171 -10 -63 -3 -137 -8 -165 -10 -27 -3
-79 -7 -115 -10 -122 -10 -192 -17 -305 -30 -22 -3 -62 -7 -90 -10 -27 -4 -61
-8 -75 -10 -14 -2 -70 -11 -124 -20 -55 -9 -140 -25 -190 -36 -50 -11 -122
-23 -160 -25 -87 -6 -164 -40 -295 -131 -201 -138 -451 -381 -662 -643 -248
-307 -522 -719 -729 -1095 -18 -33 -42 -76 -53 -95 -11 -19 -60 -114 -110
-210 -151 -294 -157 -304 -189 -338 -101 -108 -364 -232 -793 -374 -219 -72
-342 -129 -505 -235 -189 -122 -215 -151 -313 -350 -30 -62 -71 -132 -90 -155
-77 -96 -288 -433 -317 -508 -16 -41 -57 -178 -65 -218 -2 -9 -10 -51 -18 -92
-32 -157 -49 -260 -62 -390 -4 -36 -8 -75 -10 -88 -18 -116 -23 -476 -14
-1137 1 -104 0 -278 -4 -385 -25 -742 -26 -1938 -2 -2305 1 -27 6 -99 10 -160
8 -132 18 -244 30 -333 13 -99 16 -121 26 -167 46 -212 148 -382 269 -446 l45
-23 900 -2 c1007 -1 915 -8 997 77 97 100 121 194 134 519 3 80 8 147 10 149
3 4 238 -15 304 -24 14 -2 66 -6 115 -10 50 -3 106 -8 125 -10 37 -4 111 -11
225 -20 39 -4 81 -8 95 -10 46 -7 224 -19 280 -19 100 0 253 14 385 36 51 9
380 11 1200 10 2211 -3 3887 -3 5110 1 920 2 1258 0 1310 -9 246 -41 445 -47
680 -18 17 2 68 6 115 9 47 4 92 8 100 10 8 2 56 7 105 10 50 4 104 8 120 10
17 1 66 6 110 10 44 4 114 11 155 15 41 3 95 6 119 6 l44 -1 2 -100 c10 -385
50 -509 196 -616 l34 -26 900 2 900 1 51 26 c138 72 244 268 279 518 3 25 8
52 10 60 2 8 7 44 10 80 3 36 8 81 10 100 45 374 54 1723 18 2775 -7 236 -7
291 2 475 13 257 8 648 -10 850 -9 96 -16 166 -20 195 -10 81 -16 124 -20 146
-2 13 -6 41 -9 62 -27 182 -106 468 -145 527 -9 14 -21 34 -28 45 -28 47 -121
195 -160 255 -58 88 -63 96 -103 149 -20 25 -65 104 -100 176 -78 154 -122
204 -265 297 -211 137 -282 171 -533 254 -468 157 -733 285 -815 396 -13 18
-75 132 -137 253 -198 386 -392 716 -597 1020 -98 143 -292 408 -312 425 -4 3
-26 30 -50 60 -114 147 -343 379 -491 499 -193 157 -320 226 -430 235 -36 2
-99 12 -140 21 -89 20 -90 20 -205 39 -84 14 -109 18 -217 31 -24 3 -59 7 -78
10 -55 7 -130 15 -190 20 -30 3 -80 7 -110 10 -135 12 -350 25 -675 40 -421
20 -960 28 -1893 29 -481 1 -874 0 -875 0z m1833 -209 c405 -8 483 -10 670
-19 335 -17 546 -29 675 -41 28 -2 88 -7 135 -10 47 -3 99 -8 115 -10 17 -2
67 -7 113 -10 45 -4 93 -8 105 -10 12 -2 54 -6 92 -9 77 -7 81 -8 275 -31 146
-17 348 -45 430 -60 14 -2 41 -7 60 -9 19 -3 49 -8 65 -12 17 -3 36 -7 42 -8
46 -8 815 -1126 995 -1446 14 -25 35 -63 48 -85 12 -22 26 -45 31 -50 39 -49
214 -437 233 -517 l6 -26 -53 4 c-28 2 -74 6 -102 9 -27 2 -86 7 -130 10 -44
3 -111 8 -150 10 -114 9 -213 14 -340 20 -66 3 -156 7 -200 10 -103 6 -378 18
-685 30 -274 10 -381 14 -565 20 -99 3 -232 8 -295 10 -63 2 -216 7 -340 10
-124 3 -290 8 -370 10 -80 3 -253 7 -385 10 -132 4 -305 8 -385 10 -822 20
-1153 23 -1660 11 -173 -4 -389 -9 -480 -11 -214 -5 -582 -14 -785 -20 -409
-12 -570 -16 -690 -20 -71 -2 -211 -7 -310 -10 -99 -3 -234 -7 -300 -10 -271
-11 -396 -16 -505 -20 -63 -2 -167 -7 -230 -10 -63 -3 -162 -7 -220 -10 -105
-5 -234 -12 -365 -20 -38 -2 -119 -7 -180 -10 -60 -4 -121 -8 -135 -10 -14 -2
-68 -6 -120 -10 -52 -3 -112 -8 -132 -11 l-37 -5 13 43 c95 307 399 826 905
1548 90 129 214 303 276 385 l111 150 75 13 c41 7 135 22 209 33 184 27 188
27 245 34 28 3 66 8 85 11 46 6 91 11 170 19 36 4 76 8 90 10 22 3 110 12 195
20 17 2 71 6 120 10 50 3 108 8 130 10 22 2 78 7 125 10 47 4 105 8 130 10 25
2 92 7 150 10 58 3 137 8 175 10 39 2 138 7 220 10 83 4 188 8 235 10 47 2
243 7 435 10 193 4 351 8 352 9 5 4 1314 -3 1613 -9z m-7770 -4049 c14 -2 48
-7 75 -10 65 -8 193 -26 225 -32 14 -2 50 -6 80 -9 30 -3 62 -8 70 -10 21 -6
65 -13 130 -20 30 -3 62 -8 70 -10 8 -2 38 -6 65 -10 28 -3 61 -8 75 -10 14
-3 41 -7 60 -9 19 -3 64 -9 100 -15 36 -6 81 -13 100 -15 99 -14 122 -18 205
-32 50 -8 101 -17 115 -19 14 -2 68 -11 120 -20 52 -9 111 -18 130 -21 83 -13
341 -66 410 -85 77 -20 152 -63 182 -104 10 -13 24 -48 32 -77 8 -29 33 -117
55 -195 210 -736 204 -711 197 -770 -12 -114 -63 -139 -241 -119 -128 14 -147
16 -255 31 -14 2 -52 6 -85 10 -33 3 -71 7 -85 10 -14 2 -47 7 -75 10 -27 3
-63 8 -80 11 -16 2 -46 6 -65 8 -95 12 -143 18 -240 31 -112 15 -131 18 -254
36 -78 11 -103 14 -181 24 -22 3 -67 10 -100 15 -33 5 -80 12 -105 15 -25 3
-52 8 -60 10 -8 2 -37 6 -65 10 -27 3 -158 24 -290 46 -132 22 -256 42 -275
45 -19 3 -37 7 -40 9 -3 2 -25 6 -50 10 -25 4 -47 8 -51 10 -3 2 -20 7 -37 10
-71 12 -166 37 -217 56 -52 19 -54 21 -61 66 -6 42 2 378 10 448 2 17 7 73 11
125 18 237 26 323 36 365 17 67 74 141 132 170 47 24 59 26 127 21 41 -4 86
-8 100 -10z m13820 -20 c45 -30 106 -116 114 -161 3 -16 8 -59 11 -95 3 -36 7
-83 10 -105 32 -300 50 -743 31 -774 -23 -36 -306 -104 -696 -166 -223 -36
-290 -46 -375 -59 -55 -8 -120 -18 -145 -21 -25 -3 -52 -8 -60 -10 -8 -2 -40
-7 -70 -10 -30 -3 -95 -12 -145 -20 -49 -7 -114 -17 -144 -20 -30 -4 -61 -8
-70 -10 -9 -1 -41 -6 -72 -9 -31 -4 -65 -8 -75 -10 -11 -2 -48 -7 -84 -11 -36
-4 -74 -9 -85 -11 -11 -2 -40 -6 -65 -9 -25 -3 -61 -7 -80 -10 -19 -3 -56 -7
-82 -10 -26 -2 -60 -7 -75 -9 -16 -3 -50 -8 -78 -11 -27 -3 -70 -8 -95 -11
-25 -3 -54 -7 -65 -8 -54 -9 -185 -20 -223 -18 -25 1 -55 10 -73 22 -80 58
-76 97 69 605 66 231 126 440 132 465 21 79 89 143 182 171 37 11 235 55 288
64 19 3 42 8 50 10 8 2 31 7 50 10 19 3 60 10 90 15 30 5 71 12 90 15 19 3 42
8 50 10 8 2 39 7 69 10 30 4 63 9 75 11 12 2 37 7 56 10 19 2 46 7 60 9 14 3
43 7 65 10 22 3 51 8 65 10 14 2 43 7 65 10 23 3 52 7 65 10 14 3 48 7 75 10
28 3 57 8 65 10 8 2 35 7 60 10 25 3 56 8 70 10 14 2 50 7 80 10 30 4 64 9 75
11 11 2 40 7 65 10 25 3 72 9 105 14 33 5 83 12 110 16 28 3 58 8 69 10 10 2
41 6 70 9 28 4 76 10 106 15 94 15 175 6 220 -24z m-6085 -250 c61 -2 216 -7
345 -11 129 -3 285 -8 345 -10 61 -2 196 -7 300 -10 105 -3 240 -8 300 -10 61
-2 189 -7 285 -10 96 -3 225 -7 285 -10 61 -2 182 -7 270 -10 268 -10 319 -18
422 -66 87 -41 145 -109 169 -195 16 -62 17 -72 1 -172 -21 -133 -29 -178 -83
-427 -2 -11 -6 -29 -8 -40 -2 -11 -10 -42 -16 -70 -6 -27 -13 -57 -15 -65 -24
-111 -73 -312 -151 -625 -53 -209 -97 -387 -99 -395 -11 -44 -219 -829 -241
-910 -9 -30 -19 -68 -24 -85 -4 -16 -24 -91 -44 -165 -38 -142 -69 -216 -116
-284 -134 -193 -330 -285 -645 -301 -290 -14 -489 -23 -710 -30 -99 -4 -223
-8 -275 -10 -756 -28 -1926 -24 -2780 10 -587 23 -776 33 -859 46 -220 34
-408 157 -505 332 -36 65 -53 115 -106 312 -18 66 -45 165 -60 220 -15 55 -42
154 -60 220 -17 66 -33 127 -36 135 -2 8 -13 49 -23 90 -11 41 -29 109 -40
150 -48 184 -233 912 -256 1010 -43 180 -78 333 -85 365 -4 22 -19 92 -33 155
-14 63 -28 131 -32 150 -3 19 -10 55 -15 80 -5 25 -12 61 -14 80 -3 19 -8 46
-11 60 -7 33 -7 117 0 155 22 111 125 202 272 240 81 21 93 22 593 40 91 3
210 8 265 10 55 2 190 7 300 10 110 3 241 8 290 10 50 2 194 6 320 10 127 4
277 8 335 10 58 2 229 6 380 10 151 4 277 8 278 10 5 5 1454 -3 1587 -9z
m-7770 -2592 c39 -3 82 -7 96 -9 31 -3 131 -14 179 -20 19 -3 60 -7 90 -10 30
-2 71 -6 90 -9 19 -3 62 -8 95 -11 78 -8 140 -14 193 -20 91 -11 200 -22 272
-30 104 -10 156 -16 180 -20 14 -2 57 -7 95 -10 39 -4 81 -8 95 -10 14 -1 57
-6 95 -10 39 -4 84 -9 100 -11 17 -1 48 -5 70 -8 22 -3 69 -8 105 -11 36 -3
82 -8 103 -10 86 -11 115 -14 177 -20 36 -3 76 -8 90 -10 14 -2 54 -7 89 -10
35 -4 78 -8 95 -10 17 -3 60 -7 96 -10 36 -3 76 -8 90 -10 14 -2 57 -7 95 -11
39 -4 79 -8 90 -10 11 -1 34 -3 51 -3 16 -1 38 -7 47 -13 13 -11 120 -368 141
-473 3 -11 14 -60 26 -110 48 -199 13 -373 -96 -477 -64 -61 -129 -110 -181
-137 -49 -24 -180 -57 -268 -66 -63 -7 -335 -7 -395 -1 -19 2 -78 7 -130 11
-52 4 -108 8 -125 10 -16 2 -68 7 -115 10 -47 4 -93 9 -102 10 -9 2 -48 7 -85
10 -37 4 -79 8 -93 10 -14 2 -50 6 -80 10 -30 3 -109 13 -175 21 -66 9 -136
17 -155 20 -19 2 -78 11 -130 19 -52 8 -117 17 -145 21 -27 3 -59 8 -70 10
-11 2 -63 11 -115 20 -52 8 -140 24 -195 36 -55 11 -111 22 -125 24 -62 11
-208 58 -259 84 -65 33 -136 104 -145 146 -6 29 -9 94 -22 469 -3 105 -8 215
-9 245 -10 191 -8 276 10 314 27 57 88 88 160 80 17 -2 62 -6 100 -10z m13864
-22 c48 -38 60 -82 56 -194 -6 -155 -14 -384 -20 -558 -10 -284 -13 -317 -35
-360 -32 -62 -120 -119 -241 -156 -91 -28 -359 -84 -473 -99 -15 -3 -35 -6
-45 -9 -9 -3 -40 -8 -70 -11 -30 -4 -61 -8 -70 -10 -21 -4 -99 -16 -131 -20
-14 -2 -43 -6 -65 -9 -22 -3 -58 -8 -80 -11 -22 -3 -51 -7 -65 -9 -14 -3 -50
-7 -80 -11 -30 -3 -71 -8 -90 -10 -19 -3 -57 -7 -85 -10 -27 -3 -66 -7 -85
-10 -19 -2 -60 -7 -90 -10 -30 -3 -71 -8 -90 -10 -19 -2 -66 -7 -105 -10 -38
-4 -86 -8 -105 -10 -37 -4 -175 -15 -250 -21 -92 -6 -337 -6 -400 1 -200 20
-307 68 -449 200 -121 112 -146 293 -78 565 62 246 135 493 149 501 7 5 29 9
48 10 19 0 46 2 60 4 14 1 52 6 85 9 67 8 123 14 175 21 19 2 64 7 100 10 36
3 81 8 100 10 19 2 58 7 85 10 87 9 139 15 175 20 19 2 62 7 95 10 70 6 146
14 195 20 19 2 62 7 95 10 33 3 76 8 95 10 19 2 60 7 90 10 30 3 89 10 130 15
41 5 104 12 140 15 65 6 114 11 180 20 19 3 62 7 95 10 33 3 96 9 140 15 44 5
112 12 150 15 39 4 77 8 85 10 8 2 51 7 95 11 44 3 82 8 86 9 3 2 42 7 87 10
45 3 91 8 103 10 12 2 54 7 93 11 39 3 73 8 75 10 1 1 26 1 55 -2 36 -4 61
-13 85 -32z m-4188 -1530 c193 -53 384 -169 544 -331 l69 -71 -49 -1 c-28 0
-108 -2 -180 -4 -71 -1 -294 -6 -495 -9 -201 -4 -475 -9 -610 -11 -135 -3
-366 -7 -515 -10 -797 -14 -954 -17 -1100 -20 -209 -5 -840 -5 -1025 0 -150 3
-654 12 -1100 20 -140 3 -381 7 -535 10 -154 3 -419 8 -590 10 -590 10 -717
14 -723 20 -4 3 18 30 48 58 204 196 395 308 589 346 78 16 307 17 2840 16
l2756 -2 76 -21z"/>
<path d="M8089 7986 c-2 -2 -26 -6 -54 -10 -142 -17 -326 -89 -467 -183 -206
-137 -392 -400 -448 -631 -6 -29 -15 -52 -18 -53 -4 0 -54 -2 -111 -3 -99 -2
-104 -3 -127 -29 -30 -35 -30 -68 -1 -103 22 -25 29 -27 113 -28 49 -1 94 -5
99 -8 11 -7 11 -135 0 -146 -3 -4 -47 -7 -97 -8 -86 -1 -93 -3 -115 -28 -29
-34 -29 -68 0 -102 23 -27 28 -28 131 -29 58 -1 108 -4 110 -6 2 -2 13 -38 25
-79 39 -128 112 -270 200 -384 40 -52 177 -177 241 -220 180 -121 381 -186
590 -192 69 -1 150 1 180 6 30 5 69 12 85 14 109 18 304 101 324 139 27 50
-11 117 -66 117 -12 0 -51 -13 -87 -29 -53 -25 -149 -58 -191 -67 -116 -24
-311 -24 -410 -1 -280 66 -523 252 -645 497 -39 78 -82 192 -74 199 3 3 255 5
560 6 l556 0 23 27 c39 45 11 127 -43 129 -15 1 -274 2 -577 3 l-550 1 0 80 0
80 618 0 619 0 24 28 c30 36 30 68 0 104 l-24 28 -606 0 -605 0 6 25 c21 90
103 247 173 334 150 187 335 299 585 351 17 4 82 8 145 9 141 4 251 -17 376
-69 121 -51 146 -54 178 -21 29 28 32 52 14 91 -21 47 -231 129 -393 154 -56
8 -259 14 -266 7z"/>
<path d="M1315 6073 c-99 -20 -206 -81 -270 -155 -215 -249 -102 -641 214
-738 123 -39 274 -19 381 50 298 191 275 641 -41 797 -87 44 -201 62 -284 46z"/>
<path d="M14120 6066 c-57 -12 -150 -55 -176 -80 -7 -8 -24 -23 -37 -33 -32
-24 -84 -98 -107 -150 -54 -122 -50 -265 11 -390 68 -141 214 -239 372 -250
220 -15 402 103 471 307 32 95 31 224 -2 310 -83 214 -308 335 -532 286z"/>
<path d="M5589 3426 c-2 -2 -20 -6 -39 -9 -39 -5 -113 -33 -149 -56 -97 -62
-147 -169 -139 -300 8 -131 66 -219 231 -351 90 -72 112 -100 103 -134 -12
-47 -116 -55 -259 -20 -32 8 -63 14 -68 14 -5 0 -9 -77 -9 -179 l0 -179 48
-11 c139 -33 364 -36 453 -8 110 36 182 96 225 190 26 55 29 73 28 157 0 52
-3 106 -7 119 -19 72 -95 180 -169 242 -113 96 -141 126 -135 143 10 26 45 34
122 31 l71 -4 -1 167 0 167 -40 7 c-46 8 -260 20 -266 14z m149 -175 c5 -3 9
-13 9 -22 0 -14 -15 -17 -91 -21 -129 -6 -173 -41 -169 -133 2 -57 33 -103
134 -200 129 -124 159 -157 185 -201 67 -114 26 -255 -91 -310 -43 -20 -170
-28 -255 -15 -37 5 -46 10 -48 29 -3 22 -2 22 60 15 97 -10 175 -5 221 15 51
23 75 49 92 98 26 76 -6 152 -101 245 -223 216 -244 245 -244 332 0 84 45 138
138 167 30 10 146 10 160 1z"/>
<path d="M8353 3409 c-276 -68 -474 -319 -475 -602 0 -97 6 -130 36 -219 90
-259 352 -431 631 -415 160 9 283 65 401 183 65 64 90 97 122 165 121 251 74
531 -122 724 -158 156 -378 217 -593 164z m342 -193 c173 -80 277 -250 269
-439 -5 -115 -45 -206 -127 -291 -103 -106 -201 -147 -346 -143 -87 2 -103 6
-173 39 -166 79 -269 236 -270 411 0 127 46 241 135 329 49 49 132 103 174
113 10 3 34 9 53 14 19 6 74 9 122 6 73 -3 98 -9 163 -39z"/>
<path d="M8440 3206 c-90 -16 -155 -50 -223 -118 -168 -167 -165 -424 7 -585
86 -81 161 -113 272 -115 319 -6 526 338 369 613 -58 102 -189 194 -292 205
-27 3 -52 7 -58 8 -5 2 -39 -2 -75 -8z m173 -181 c88 -42 140 -124 140 -225 1
-269 -366 -347 -476 -101 -26 59 -26 143 1 201 29 64 106 131 163 143 46 10
134 1 172 -18z"/>
<path d="M9480 3416 c-115 -25 -201 -87 -249 -181 -23 -44 -26 -62 -26 -150 0
-91 3 -105 29 -158 35 -68 102 -141 204 -221 40 -31 79 -68 88 -81 22 -34 11
-70 -23 -83 -44 -15 -165 -5 -276 23 l-27 7 0 -180 0 -181 53 -10 c125 -25
152 -28 244 -29 54 0 118 3 143 8 139 26 237 95 286 202 25 56 29 74 29 163 0
94 -2 104 -36 175 -38 79 -90 139 -211 244 -38 32 -68 64 -68 71 0 29 33 40
114 39 l82 -1 -1 166 0 166 -40 7 c-77 14 -259 16 -315 4z m196 -164 c6 -4 11
-15 11 -24 0 -16 -11 -18 -80 -18 -147 0 -209 -64 -171 -175 20 -61 17 -57
197 -233 61 -59 105 -112 121 -145 66 -132 -1 -272 -148 -308 -46 -11 -226 -6
-247 7 -5 3 -9 14 -9 25 0 19 4 20 53 13 163 -22 278 10 312 86 26 57 23 120
-8 172 -14 24 -83 99 -154 169 -140 137 -173 187 -173 263 0 111 82 174 230
175 30 0 60 -3 66 -7z"/>
<path d="M2884 2803 l1 -598 190 0 190 0 1 137 c0 76 2 140 5 142 3 3 43 -60
89 -139 l85 -145 223 0 c122 0 222 3 222 8 0 4 -8 21 -18 37 -10 17 -31 51
-45 78 -61 107 -77 135 -115 201 l-40 70 37 35 c44 42 95 128 111 189 16 62
13 188 -6 252 -35 117 -112 208 -224 265 -103 52 -178 63 -459 64 l-247 2 0
-598z m522 432 c183 -53 269 -185 239 -365 -14 -86 -88 -176 -173 -210 l-32
-13 20 -31 c12 -17 28 -44 36 -61 17 -34 28 -53 65 -110 14 -22 33 -54 42 -72
l17 -32 -27 5 c-34 6 -43 12 -51 33 -4 9 -38 69 -77 134 l-70 118 -45 -6 c-26
-3 -90 -6 -143 -7 l-97 -1 0 -138 0 -137 -23 2 -24 1 2 455 c1 250 2 456 3
456 1 1 64 1 140 -1 94 -2 157 -8 198 -20z"/>
<path d="M3115 3211 c-3 -2 -5 -128 -5 -279 l0 -274 128 5 c142 6 153 8 214
35 96 42 146 116 152 222 7 141 -67 238 -210 275 -56 14 -269 27 -279 16z
m277 -164 c64 -36 77 -139 23 -192 -24 -25 -93 -48 -128 -43 -20 3 -21 8 -20
113 1 170 -3 155 45 149 24 -3 60 -15 80 -27z"/>
<path d="M3924 2803 l1 -598 358 -3 c196 -1 357 1 358 5 7 49 2 296 -6 302 -5
4 -81 7 -167 6 -101 0 -158 3 -159 10 -4 46 -3 108 2 117 5 8 60 11 161 12
l153 0 0 148 1 148 -26 1 c-14 0 -86 1 -160 2 l-134 2 1 48 c0 26 1 55 2 65 1
17 12 18 149 17 81 -1 153 1 160 3 9 3 12 44 12 158 l0 154 -353 0 -354 0 1
-597z m586 432 c0 -21 -4 -21 -177 -21 l-178 0 -3 -195 -2 -195 157 1 c184 1
192 0 186 -26 -5 -18 -16 -19 -174 -19 l-169 0 0 -195 c0 -149 3 -195 13 -196
6 0 87 0 180 0 166 0 167 0 167 -22 l0 -23 -204 1 -203 0 2 455 c1 250 3 455
3 456 1 0 92 0 202 0 197 0 200 0 200 -21z"/>
<path d="M4753 2800 l0 -600 203 0 204 0 0 600 0 600 -203 0 -204 0 0 -600z
m227 4 c0 -261 -4 -455 -9 -458 -5 -4 -16 -3 -24 0 -13 5 -15 63 -15 452 0
268 4 449 9 453 6 3 16 6 24 6 13 0 15 -63 15 -453z"/>
<path d="M6103 2800 l0 -600 358 0 359 0 1 23 c3 64 1 268 -4 280 -4 10 -42
13 -166 12 -138 -1 -161 2 -162 15 -3 42 0 112 5 117 4 4 75 7 158 7 l153 1 0
148 0 147 -65 1 c-36 0 -107 1 -157 0 -66 0 -93 3 -94 12 -1 15 -1 110 0 117
1 3 67 5 149 5 81 -1 153 1 160 3 9 3 12 44 12 158 l0 154 -353 0 -354 0 0
-600z m587 435 c0 -21 -3 -21 -180 -21 l-180 1 0 -195 0 -195 168 0 c166 0
167 0 170 -22 l3 -23 -170 0 -171 0 0 -197 0 -198 180 2 180 2 0 -22 0 -23
-202 1 -203 0 -1 450 c-1 248 0 453 2 456 2 3 93 5 203 5 199 0 201 0 201 -21z"/>
<path d="M6923 2800 l0 -600 193 0 194 0 2 182 3 183 40 -57 c22 -32 78 -113
125 -182 l85 -125 233 -1 233 0 -105 153 c-58 83 -157 230 -222 325 l-116 173
26 38 c15 21 34 46 44 57 9 10 37 46 62 79 24 33 50 66 56 75 7 8 49 62 94
120 44 58 91 119 105 135 14 17 25 33 25 38 0 4 -106 7 -235 7 -129 0 -235 -3
-235 -7 0 -5 -12 -21 -28 -38 -15 -16 -54 -64 -87 -105 -33 -41 -70 -86 -82
-100 l-23 -25 0 138 0 137 -193 0 -194 0 0 -600z m229 162 l3 -297 190 235
c104 129 194 240 200 246 5 6 28 34 50 62 31 39 46 50 68 50 31 -1 31 -2 14
-20 -11 -12 -280 -348 -299 -374 -6 -8 112 -193 175 -275 6 -8 17 -23 22 -31
6 -9 38 -57 73 -107 34 -51 62 -95 62 -99 0 -4 -9 -8 -19 -9 -23 -2 -35 12
-144 172 -46 66 -111 161 -146 212 l-63 92 -94 -116 -94 -115 0 -122 c0 -120
0 -122 -23 -124 l-24 -1 2 452 c1 248 2 454 3 457 1 3 11 6 22 7 19 2 20 -6
22 -295z"/>
<path d="M9980 3243 l0 -158 110 1 110 1 0 -51 c1 -28 1 -228 1 -443 l0 -393
198 0 198 0 1 428 c0 235 1 434 1 443 1 13 16 15 99 14 53 0 103 1 110 3 9 3
12 44 12 158 l0 154 -420 0 -420 0 0 -157z m698 -8 c3 -20 -2 -21 -126 -20
l-129 0 0 -426 c0 -234 -3 -431 -7 -437 -12 -20 -33 -13 -38 11 -2 12 -3 207
-3 434 0 361 -1 412 -15 415 -8 2 -66 3 -127 2 -109 -2 -113 -1 -113 20 0 21
0 21 278 21 271 0 277 0 280 -20z"/>
<path d="M10884 2803 l1 -598 358 -3 c196 -1 357 1 358 5 6 62 2 296 -6 302
-5 4 -81 7 -167 6 -101 0 -158 3 -159 10 -7 72 -2 118 13 124 9 3 81 6 160 5
l143 -1 0 149 0 148 -45 1 c-25 0 -96 1 -157 1 -126 -1 -116 -7 -115 73 0 67
-13 62 162 61 l160 -1 0 157 0 158 -353 0 -353 0 0 -597z m586 432 c0 -21 -3
-21 -177 -21 l-178 0 -3 -194 -2 -195 157 0 c87 1 164 -1 171 -3 6 -2 12 -13
12 -23 0 -18 -10 -19 -170 -19 l-170 0 0 -195 0 -195 23 -1 c12 0 93 0 180 0
157 1 157 1 157 -22 l0 -22 -204 0 -203 -1 0 451 c0 247 1 453 3 456 2 3 93 5
204 5 197 0 200 -1 200 -21z"/>
<path d="M11703 2800 l0 -600 188 0 189 0 2 226 3 226 160 -224 160 -223 160
-3 161 -2 -1 597 0 598 -187 3 -188 2 0 -231 0 -232 -165 231 -166 232 -158 0
-158 0 0 -600z m361 250 c80 -113 149 -209 154 -215 4 -5 46 -64 92 -130 47
-66 89 -125 95 -131 5 -6 30 -41 55 -78 l45 -66 5 412 c4 322 8 413 18 412 6
-1 16 -2 20 -2 5 -1 8 -205 8 -454 l-1 -451 -21 -3 c-20 -3 -44 23 -124 142
-8 13 -47 67 -86 121 -39 54 -85 118 -102 143 -17 25 -72 101 -122 170 -50 69
-110 153 -133 187 -23 34 -44 60 -46 57 -2 -2 -5 -187 -5 -410 l-1 -407 -22
-3 -23 -4 0 459 0 460 24 -2 c19 -2 54 -44 170 -207z"/>
</g>
</svg>
